<svg xmlns="http://www.w3.org/2000/svg" version="1.1" xmlns:xlink="http://www.w3.org/1999/xlink" xmlns:svgjs="http://svgjs.dev/svgjs" width="1000" height="750" viewBox="0 0 1000 750"><rect width="1000" height="750" fill="#ffffff"></rect><g transform="matrix(0.834,0,0,0.834,82.49454545454546,230.7449957369573)"><svg viewBox="0 0 396 137" data-background-color="#ffffff" preserveAspectRatio="xMidYMid meet" height="345" width="1000" xmlns="http://www.w3.org/2000/svg" xmlns:xlink="http://www.w3.org/1999/xlink"><g id="tight-bounds" transform="matrix(1,0,0,1,0.2400000000000091,0.1856969521317069)"><svg viewBox="0 0 395.52 136.62851886883797" height="136.62851886883797" width="395.52"><g><svg viewBox="0 0 661.2080349901117 228.40785417898906" height="136.62851886883797" width="395.52"><g transform="matrix(1,0,0,1,265.68803499011176,58.86691792541156)"><svg viewBox="0 0 395.52 110.67401832816593" height="110.67401832816593" width="395.52"><g id="textblocktransform"><svg viewBox="0 0 395.52 110.67401832816593" height="110.67401832816593" width="395.52" id="textblock"><g><rect width="75.54432" height="7.1205145349244425" y="100.57580048297571" fill="#1c4b82" data-fill-palette-color="tertiary"></rect><rect width="75.54432" height="7.1205145349244425" y="100.57580048297571" x="319.97568" fill="#1c4b82" data-fill-palette-color="tertiary"></rect></g><g><svg viewBox="0 0 395.52 78.95800676714858" height="78.95800676714858" width="395.52"><g transform="matrix(1,0,0,1,0,0)"><svg width="395.52" viewBox="3 -32.05 162.54 32.449999999999996" height="78.95800676714858" data-palette-color="#0074d9"><path d="M33.25-32.05L36.4 0 32.8 0 32.05-9.75 30.35-25.7 30-25.7 21.1-3.7 17.8-3.7 9.35-25.7 8.95-25.7 7.25-10.05 6.4 0 3 0 6.35-32.05 10.9-32.05 12.55-27.15 19.5-8.9 19.8-8.9 27.1-27.45 28.75-32.05 33.25-32.05ZM51-23.3Q55.65-23.3 58.22-20.28 60.8-17.25 60.8-11.75L60.8-11.75Q60.8-5.95 58.1-2.78 55.4 0.4 50.4 0.4L50.4 0.4Q45.7 0.4 43.12-2.63 40.55-5.65 40.55-11.15L40.55-11.15Q40.55-16.95 43.27-20.13 46-23.3 51-23.3L51-23.3ZM50.75-20.5Q47.6-20.5 45.95-18.35 44.3-16.2 44.3-12.05L44.3-12.05Q44.3-7.25 45.92-4.85 47.55-2.45 50.65-2.45L50.65-2.45Q53.8-2.45 55.45-4.55 57.1-6.65 57.1-10.85L57.1-10.85Q57.1-15.6 55.47-18.05 53.85-20.5 50.75-20.5L50.75-20.5ZM74.2-3.05Q75.84-3.05 77.8-4.05L77.8-4.05 78.25-3.75 77.84-1.15Q75.15 0.1 72.84 0.3L72.84 0.3Q70-0.25 68.75-1.8 67.5-3.35 67.5-6.3L67.5-6.3 67.65-9.85 67.59-20.2 64.45-20.2 64.25-20.5 64.5-22.85 67.55-22.85 67.55-26.55 71-28.05 71.4-27.7 71.3-22.85 78.09-22.85 78.3-22.55 78.05-20.2 71.3-20.2 71.05-6.65Q71-4.65 71.75-3.85 72.5-3.05 74.2-3.05L74.2-3.05ZM103.04-3.3L103.44-2.95 103.04-0.7Q101.59 0.15 100.19 0.3L100.19 0.3Q98.74 0.1 97.87-0.73 96.99-1.55 96.64-3.2L96.64-3.2 96.34-3.2Q93.34-0.5 90.14 0.3L90.14 0.3Q86.44 0.3 84.52-1.45 82.59-3.2 82.64-6.45L82.64-6.45 82.69-12.8 82.54-22.65 86.54-23 86.24-7.4Q86.24-5.35 87.22-4.2 88.19-3.05 90.09-3.05L90.09-3.05Q93.19-3.05 96.29-6.05L96.29-6.05 96.29-22.65 100.09-23 99.84-4.9Q99.84-3.85 100.17-3.43 100.49-3 101.29-3L101.29-3Q102.09-3 103.04-3.3L103.04-3.3ZM136.34 0L136.59-15.55Q136.64-17.6 135.64-18.75 134.64-19.9 132.69-19.9L132.69-19.9Q129.49-19.9 126.04-16.45L126.04-16.45 125.94-9.95 126.14 0 122.09 0 122.39-15.55Q122.44-17.6 121.44-18.75 120.44-19.9 118.49-19.9L118.49-19.9Q115.34-19.9 111.69-16.35L111.69-16.35 111.69-10.05 111.89 0 107.94 0 108.19-9.7 107.99-22.65 111.74-23 111.74-19.65 112.04-19.65Q115.14-22.4 118.39-23.2L118.39-23.2Q121.19-23.2 122.99-22.23 124.79-21.25 125.54-19.4L125.54-19.4 125.84-19.4Q128.99-22.25 132.59-23.2L132.59-23.2Q136.39-23.2 138.34-21.45 140.29-19.7 140.24-16.45L140.24-16.45 140.14-9.95 140.34 0 136.34 0ZM155.49-23.3Q158.74-23.3 160.61-21.7 162.49-20.1 162.49-17.3L162.49-17.3Q162.49-16.45 162.19-11.15L162.19-11.15Q161.89-5.85 161.89-4.95L161.89-4.95Q161.89-3.85 162.24-3.43 162.59-3 163.44-3L163.44-3Q164.19-3 165.14-3.3L165.14-3.3 165.54-2.95 165.14-0.7Q163.69 0.15 162.29 0.3L162.29 0.3Q160.74 0.15 159.81-0.8 158.89-1.75 158.84-3.4L158.84-3.4 158.49-3.4Q155.79-0.65 153.14 0.35L153.14 0.35Q149.79 0.35 147.91-1.33 146.04-3 146.04-5.9L146.04-5.9Q146.04-8.1 147.21-9.4 148.39-10.7 150.69-11.25L150.69-11.25 158.79-13.15 158.84-16.4Q158.84-18.35 157.81-19.4 156.79-20.45 154.89-20.45L154.89-20.45Q153.19-20.45 151.49-19.65 149.79-18.85 147.84-17.15L147.84-17.15 147.44-17.35 146.94-20.2Q151.09-23.3 155.49-23.3L155.49-23.3ZM158.74-10.6L151.49-8.85Q150.49-8.55 150.04-8.03 149.59-7.5 149.59-6.45L149.59-6.45Q149.59-4.8 150.51-3.88 151.44-2.95 152.99-2.95L152.99-2.95Q155.74-2.95 158.59-6.5L158.59-6.5 158.74-10.6Z" opacity="1" transform="matrix(1,0,0,1,0,0)" fill="#0074d9" class="wordmark-text-0" data-fill-palette-color="primary" id="text-0"></path></svg></g></svg></g><g transform="matrix(1,0,0,1,75.54432,97.59809717270994)"><svg viewBox="0 0 244.43135999999998 13.075921155455989" height="13.075921155455989" width="244.43135999999998"><g transform="matrix(1,0,0,1,8,0)"><svg width="228.43135999999998" viewBox="1.8 -36.65 848.07 48.55" height="13.075921155455989" data-palette-color="#1c4b82"><path d="M35.7-23.3L31.1-23.3 31.1-30.15 13.3-30.15 13.3-19.2 21.2-19.2 21.2-23.85 25.2-23.85 25.2-10.75 21.2-10.75 21.2-15.4 13.3-15.4 13.3-4.15 31.1-4.15 31.1-11 35.7-11 35.7 0 1.8 0 1.8-4.15 8.2-4.15 8.2-30.15 1.8-30.15 1.8-34.3 35.7-34.3 35.7-23.3ZM67.15-4.15L68.15-0.6Q66.5 0.4 64.3 0.4L64.3 0.4Q62.45 0.4 61.17-0.68 59.9-1.75 59.4-3.75L59.4-3.75Q54.4 0.7 49.5 0.7L49.5 0.7Q46.05 0.7 43.65-1.25 41.25-3.2 41.25-6.7L41.25-6.7Q41.25-9.1 42.6-10.88 43.95-12.65 46.22-13.58 48.5-14.5 51.15-14.5L51.15-14.5Q53.4-14.5 55.3-14.08 57.2-13.65 59.2-12.85L59.2-12.85 59.2-15.05Q59.2-17.6 57.5-18.8 55.8-20 53.05-20L53.05-20Q49.15-20 43.65-17.85L43.65-17.85 42.65-21.65Q48.55-24.15 53.65-24.15L53.65-24.15Q58.5-24.15 61.17-21.78 63.85-19.4 63.85-14.85L63.85-14.85 63.85-6.2Q63.85-3.75 65.6-3.75L65.6-3.75Q66.35-3.75 67.15-4.15L67.15-4.15ZM46.1-6.95Q46.1-5.25 47.45-4.33 48.8-3.4 50.75-3.4L50.75-3.4Q52.45-3.4 54.65-4.3 56.85-5.2 59.2-6.95L59.2-6.95 59.2-9.6Q55.8-10.8 52-10.9L52-10.9Q49.55-10.9 47.82-9.88 46.1-8.85 46.1-6.95L46.1-6.95ZM82.9-13.9Q87.5-12.65 89.97-10.78 92.45-8.9 92.45-5.75L92.45-5.75Q92.45-2.85 90-1.07 87.55 0.7 83.95 0.7L83.95 0.7Q81.45 0.7 79.02-0.18 76.6-1.05 74.7-2.6L74.7-2.6 74.7 0.05 70.9 0.05 70.9-7.6 73.05-7.8Q74.95-5.65 77.82-4.13 80.7-2.6 83.45-2.6L83.45-2.6Q85.3-2.6 86.35-3.3 87.4-4 87.4-5.3L87.4-5.3Q87.4-6.8 85.75-7.78 84.1-8.75 80.35-9.75L80.35-9.75Q75.85-10.95 73.42-12.78 71-14.6 71-17.55L71-17.55Q71-19.4 72.02-20.93 73.05-22.45 74.92-23.33 76.8-24.2 79.25-24.2L79.25-24.2Q81.65-24.2 83.82-23.4 86-22.6 87.6-21.15L87.6-21.15 87.6-23.55 91.35-23.55 91.35-15.95 89.15-15.7Q87.75-18.05 85.32-19.48 82.9-20.9 80.5-20.9L80.5-20.9Q78.55-20.9 77.3-20.13 76.05-19.35 76.05-18.1L76.05-18.1Q76.05-16.75 77.7-15.83 79.35-14.9 82.9-13.9L82.9-13.9ZM126.79-23.55L126.79-19.6 123.09-19.6 113.19 2.6Q111.09 7.25 108.47 9.58 105.84 11.9 102.34 11.9L102.34 11.9Q100.39 11.9 98.82 11.28 97.24 10.65 95.39 9.45L95.39 9.45 97.39 5.7Q99.94 7.55 102.34 7.55L102.34 7.55Q104.49 7.55 106.19 6.18 107.89 4.8 109.19 1.8L109.19 1.8 109.54 1 99.44-19.6 95.54-19.6 95.54-23.55 108.74-23.55 108.74-19.95 104.69-19.95 111.79-4.15 118.74-19.95 114.89-19.95 114.89-23.55 126.79-23.55ZM172.44-4.05L173.49-0.45Q172.79-0.05 171.79 0.23 170.79 0.5 169.69 0.5L169.69 0.5Q167.84 0.5 166.49-0.48 165.14-1.45 164.64-3.3L164.64-3.3Q162.64-1.5 160.41-0.4 158.19 0.7 155.49 0.7L155.49 0.7Q152.44 0.7 149.81-0.85 147.19-2.4 145.64-5.18 144.09-7.95 144.09-11.45L144.09-11.45Q144.09-15.1 145.71-18.03 147.34-20.95 150.14-22.58 152.94-24.2 156.34-24.2L156.34-24.2Q160.69-24.2 164.34-21L164.34-21 164.34-30.35 159.04-30.35 159.04-34.3 169.14-34.3 169.14-6.05Q169.14-3.65 170.79-3.65L170.79-3.65Q171.89-3.65 172.44-4.05L172.44-4.05ZM149.19-11.5Q149.19-7.9 151.21-5.7 153.24-3.5 156.49-3.5L156.49-3.5Q160.24-3.5 164.34-6.9L164.34-6.9 164.34-17.25Q160.84-20.05 157.44-20.05L157.44-20.05Q155.09-20.05 153.19-18.95 151.29-17.85 150.24-15.9 149.19-13.95 149.19-11.5L149.19-11.5ZM198.34-6.7L200.44-3.5Q195.64 0.7 189.49 0.7L189.49 0.7Q186.14 0.7 183.14-0.7 180.14-2.1 178.29-4.8 176.44-7.5 176.44-11.2L176.44-11.2Q176.44-15.15 178.34-18.1 180.24-21.05 183.29-22.63 186.34-24.2 189.69-24.2L189.69-24.2Q192.64-24.2 194.96-23.25 197.29-22.3 198.61-20.6 199.94-18.9 199.94-16.7L199.94-16.7Q199.94-13.4 197.11-11.58 194.29-9.75 190.34-9.75L190.34-9.75Q187.79-9.75 185.59-10.28 183.39-10.8 181.14-11.8L181.14-11.8 181.14-11.35Q181.14-9 182.26-7.2 183.39-5.4 185.29-4.45 187.19-3.5 189.44-3.5L189.44-3.5Q194.54-3.5 198.34-6.7L198.34-6.7ZM190.04-20.3Q187.34-20.3 185.01-18.75 182.69-17.2 181.69-14.55L181.69-14.55Q185.49-13.2 189.29-13.2L189.29-13.2Q191.79-13.2 193.41-14.13 195.04-15.05 195.04-16.7L195.04-16.7Q195.04-18.3 193.64-19.3 192.24-20.3 190.04-20.3L190.04-20.3ZM232.48-23.55L232.48-19.6 228.58-19.6 218.13 0.65 215.63 0.65 204.98-19.6 201.38-19.6 201.38-23.55 214.13-23.55 214.13-19.95 210.18-19.95 217.38-5.45 224.43-19.95 220.38-19.95 220.38-23.55 232.48-23.55ZM255.78-6.7L257.88-3.5Q253.08 0.7 246.93 0.7L246.93 0.7Q243.58 0.7 240.58-0.7 237.58-2.1 235.73-4.8 233.88-7.5 233.88-11.2L233.88-11.2Q233.88-15.15 235.78-18.1 237.68-21.05 240.73-22.63 243.78-24.2 247.13-24.2L247.13-24.2Q250.08-24.2 252.41-23.25 254.73-22.3 256.06-20.6 257.38-18.9 257.38-16.7L257.38-16.7Q257.38-13.4 254.56-11.58 251.73-9.75 247.78-9.75L247.78-9.75Q245.23-9.75 243.03-10.28 240.83-10.8 238.58-11.8L238.58-11.8 238.58-11.35Q238.58-9 239.71-7.2 240.83-5.4 242.73-4.45 244.63-3.5 246.88-3.5L246.88-3.5Q251.98-3.5 255.78-6.7L255.78-6.7ZM247.48-20.3Q244.78-20.3 242.46-18.75 240.13-17.2 239.13-14.55L239.13-14.55Q242.93-13.2 246.73-13.2L246.73-13.2Q249.23-13.2 250.86-14.13 252.48-15.05 252.48-16.7L252.48-16.7Q252.48-18.3 251.08-19.3 249.68-20.3 247.48-20.3L247.48-20.3ZM270.58-3.95L276.03-3.95 276.03 0 260.43 0 260.43-3.95 265.68-3.95 265.68-30.35 260.43-30.35 260.43-34.3 270.58-34.3 270.58-3.95ZM291.63 0.7Q288.18 0.7 285.18-0.85 282.18-2.4 280.4-5.25 278.63-8.1 278.63-11.75L278.63-11.75Q278.63-15.45 280.4-18.28 282.18-21.1 285.18-22.65 288.18-24.2 291.63-24.2L291.63-24.2Q295.03-24.2 298-22.65 300.98-21.1 302.78-18.25 304.58-15.4 304.58-11.75L304.58-11.75Q304.58-8.1 302.83-5.25 301.08-2.4 298.1-0.85 295.13 0.7 291.63 0.7L291.63 0.7ZM291.63-3.25Q293.88-3.25 295.68-4.3 297.48-5.35 298.5-7.28 299.53-9.2 299.53-11.75L299.53-11.75Q299.53-14.3 298.5-16.23 297.48-18.15 295.68-19.2 293.88-20.25 291.63-20.25L291.63-20.25Q288.18-20.25 285.95-17.93 283.73-15.6 283.73-11.75L283.73-11.75Q283.73-7.9 285.95-5.58 288.18-3.25 291.63-3.25L291.63-3.25ZM326.72-24.2Q329.67-24.2 332.17-22.65 334.67-21.1 336.17-18.32 337.67-15.55 337.67-12L337.67-12Q337.67-8.35 336.05-5.45 334.42-2.55 331.62-0.93 328.82 0.7 325.42 0.7L325.42 0.7Q320.97 0.7 317.22-2.7L317.22-2.7 317.22 6.95 322.67 6.95 322.67 10.9 307.17 10.9 307.17 6.95 312.42 6.95 312.42-19.6 307.17-19.6 307.17-23.55 317.22-23.55 317.22-19Q319.17-21.4 321.67-22.8 324.17-24.2 326.72-24.2L326.72-24.2ZM324.37-3.5Q326.72-3.5 328.6-4.58 330.47-5.65 331.52-7.6 332.57-9.55 332.57-12.05L332.57-12.05Q332.57-15.6 330.55-17.82 328.52-20.05 325.37-20.05L325.37-20.05Q323.22-20.05 321.12-18.75 319.02-17.45 317.22-15.15L317.22-15.15 317.22-6.4Q320.82-3.5 324.37-3.5L324.37-3.5ZM387.27-3.95L391.92-3.95 391.92 0 378.12 0 378.12-3.95 382.37-3.95 382.37-14Q382.37-16.6 381.22-18.1 380.07-19.6 377.77-19.6L377.77-19.6Q375.72-19.6 373.57-18.25 371.42-16.9 369.37-14.4L369.37-14.4 369.37-14.15 369.37-3.95 373.67-3.95 373.67 0 360.17 0 360.17-3.95 364.47-3.95 364.47-14Q364.47-16.6 363.27-18.1 362.07-19.6 359.77-19.6L359.77-19.6Q357.72-19.6 355.57-18.23 353.42-16.85 351.32-14.3L351.32-14.3 351.32-3.95 355.67-3.95 355.67 0 341.12 0 341.12-3.95 346.42-3.95 346.42-19.6 341.12-19.6 341.12-23.55 351.32-23.55 351.32-18.4Q353.52-21.15 356.12-22.65 358.72-24.15 361.52-24.15L361.52-24.15Q364.37-24.15 366.3-22.58 368.22-21 368.97-17.95L368.97-17.95Q371.22-20.9 373.9-22.53 376.57-24.15 379.47-24.15L379.47-24.15Q383.12-24.15 385.2-21.58 387.27-19 387.27-14.15L387.27-14.15 387.27-3.95ZM416.32-6.7L418.42-3.5Q413.62 0.7 407.47 0.7L407.47 0.7Q404.12 0.7 401.12-0.7 398.12-2.1 396.27-4.8 394.42-7.5 394.42-11.2L394.42-11.2Q394.42-15.15 396.32-18.1 398.22-21.05 401.27-22.63 404.32-24.2 407.67-24.2L407.67-24.2Q410.62-24.2 412.94-23.25 415.27-22.3 416.59-20.6 417.92-18.9 417.92-16.7L417.92-16.7Q417.92-13.4 415.09-11.58 412.27-9.75 408.32-9.75L408.32-9.75Q405.77-9.75 403.57-10.28 401.37-10.8 399.12-11.8L399.12-11.8 399.12-11.35Q399.12-9 400.24-7.2 401.37-5.4 403.27-4.45 405.17-3.5 407.42-3.5L407.42-3.5Q412.52-3.5 416.32-6.7L416.32-6.7ZM408.02-20.3Q405.32-20.3 402.99-18.75 400.67-17.2 399.67-14.55L399.67-14.55Q403.47-13.2 407.27-13.2L407.27-13.2Q409.77-13.2 411.39-14.13 413.02-15.05 413.02-16.7L413.02-16.7Q413.02-18.3 411.62-19.3 410.22-20.3 408.02-20.3L408.02-20.3ZM451.31-3.95L456.01-3.95 456.01 0 442.12 0 442.12-3.95 446.46-3.95 446.46-13.7Q446.46-16.45 445.09-18.03 443.71-19.6 441.17-19.6L441.17-19.6Q436.81-19.6 431.96-14.1L431.96-14.1 431.96-3.95 436.31-3.95 436.31 0 421.76 0 421.76-3.95 427.06-3.95 427.06-19.6 421.76-19.6 421.76-23.55 431.96-23.55 431.96-18Q434.76-21.1 437.34-22.63 439.92-24.15 442.87-24.15L442.87-24.15Q446.92-24.15 449.12-21.55 451.31-18.95 451.31-13.85L451.31-13.85 451.31-3.95ZM476.16-5.35L477.86-1.65Q476.01-0.55 474.24 0.05 472.46 0.65 470.16 0.65L470.16 0.65Q466.31 0.65 464.04-1.78 461.76-4.2 461.76-8.7L461.76-8.7 461.76-19.6 456.51-19.6 456.51-23.55 461.76-23.55 461.76-30.1 466.66-30.1 466.66-23.55 474.46-23.55 474.46-19.6 466.66-19.6 466.66-8.65Q466.66-6.1 467.81-4.9 468.96-3.7 470.91-3.7L470.91-3.7Q472.31-3.7 473.56-4.13 474.81-4.55 476.16-5.35L476.16-5.35ZM482.66 9.85L481.26 8.45Q483.56 6.05 484.86 4.13 486.16 2.2 486.46 0.3L486.46 0.3Q485.51 0.6 484.16 0.6L484.16 0.6Q482.71 0.6 481.68-0.28 480.66-1.15 480.66-2.55L480.66-2.55Q480.66-4 481.78-4.98 482.91-5.95 484.61-5.95L484.61-5.95Q486.66-5.95 487.93-4.55 489.21-3.15 489.21-1L489.21-1Q489.21 1.6 487.46 4.38 485.71 7.15 482.66 9.85L482.66 9.85ZM509.01-32.5Q506.71-32.5 505.31-31.05 503.91-29.6 503.91-27.05L503.91-27.05 503.91-23.55 511.41-23.55 511.41-19.6 503.91-19.6 503.91-3.95 510.81-3.95 510.81 0 493.76 0 493.76-3.95 499.06-3.95 499.06-19.6 493.76-19.6 493.76-23.55 499.06-23.55 499.06-26.9Q499.06-31.55 501.63-34.1 504.21-36.65 508.51-36.65L508.51-36.65Q510.71-36.65 512.53-36.08 514.36-35.5 516.76-34.4L516.76-34.4 514.96-30.6Q513.41-31.5 511.98-32 510.56-32.5 509.01-32.5L509.01-32.5ZM541.55-4.15L542.55-0.6Q540.9 0.4 538.7 0.4L538.7 0.4Q536.85 0.4 535.58-0.68 534.3-1.75 533.8-3.75L533.8-3.75Q528.8 0.7 523.9 0.7L523.9 0.7Q520.45 0.7 518.05-1.25 515.65-3.2 515.65-6.7L515.65-6.7Q515.65-9.1 517-10.88 518.35-12.65 520.63-13.58 522.9-14.5 525.55-14.5L525.55-14.5Q527.8-14.5 529.7-14.08 531.6-13.65 533.6-12.85L533.6-12.85 533.6-15.05Q533.6-17.6 531.9-18.8 530.2-20 527.45-20L527.45-20Q523.55-20 518.05-17.85L518.05-17.85 517.05-21.65Q522.95-24.15 528.05-24.15L528.05-24.15Q532.9-24.15 535.58-21.78 538.25-19.4 538.25-14.85L538.25-14.85 538.25-6.2Q538.25-3.75 540-3.75L540-3.75Q540.75-3.75 541.55-4.15L541.55-4.15ZM520.5-6.95Q520.5-5.25 521.85-4.33 523.2-3.4 525.15-3.4L525.15-3.4Q526.85-3.4 529.05-4.3 531.25-5.2 533.6-6.95L533.6-6.95 533.6-9.6Q530.2-10.8 526.4-10.9L526.4-10.9Q523.95-10.9 522.23-9.88 520.5-8.85 520.5-6.95L520.5-6.95ZM557.3-13.9Q561.9-12.65 564.38-10.78 566.85-8.9 566.85-5.75L566.85-5.75Q566.85-2.85 564.4-1.07 561.95 0.7 558.35 0.7L558.35 0.7Q555.85 0.7 553.43-0.18 551-1.05 549.1-2.6L549.1-2.6 549.1 0.05 545.3 0.05 545.3-7.6 547.45-7.8Q549.35-5.65 552.23-4.13 555.1-2.6 557.85-2.6L557.85-2.6Q559.7-2.6 560.75-3.3 561.8-4 561.8-5.3L561.8-5.3Q561.8-6.8 560.15-7.78 558.5-8.75 554.75-9.75L554.75-9.75Q550.25-10.95 547.83-12.78 545.4-14.6 545.4-17.55L545.4-17.55Q545.4-19.4 546.43-20.93 547.45-22.45 549.33-23.33 551.2-24.2 553.65-24.2L553.65-24.2Q556.05-24.2 558.23-23.4 560.4-22.6 562-21.15L562-21.15 562-23.55 565.75-23.55 565.75-15.95 563.55-15.7Q562.15-18.05 559.73-19.48 557.3-20.9 554.9-20.9L554.9-20.9Q552.95-20.9 551.7-20.13 550.45-19.35 550.45-18.1L550.45-18.1Q550.45-16.75 552.1-15.83 553.75-14.9 557.3-13.9L557.3-13.9ZM589.6-5.35L591.3-1.65Q589.45-0.55 587.67 0.05 585.9 0.65 583.6 0.65L583.6 0.65Q579.75 0.65 577.47-1.78 575.2-4.2 575.2-8.7L575.2-8.7 575.2-19.6 569.95-19.6 569.95-23.55 575.2-23.55 575.2-30.1 580.1-30.1 580.1-23.55 587.9-23.55 587.9-19.6 580.1-19.6 580.1-8.65Q580.1-6.1 581.25-4.9 582.4-3.7 584.35-3.7L584.35-3.7Q585.75-3.7 587-4.13 588.25-4.55 589.6-5.35L589.6-5.35ZM643.79-0.3Q641.04 0.65 637.94 0.65L637.94 0.65Q634.29 0.65 630.74-1.05L630.74-1.05Q626.69 0.75 621.24 0.75L621.24 0.75Q617.49 0.75 614.47-0.4 611.44-1.55 609.72-3.68 607.99-5.8 607.99-8.65L607.99-8.65Q607.99-12.1 610.34-14.43 612.69-16.75 617.69-18.65L617.69-18.65Q617.19-21.1 617.19-23.9L617.19-23.9Q617.19-27 618.49-29.5 619.79-32 622.04-33.43 624.29-34.85 627.09-34.85L627.09-34.85Q629.59-34.85 631.47-33.85 633.34-32.85 634.37-31.18 635.39-29.5 635.39-27.5L635.39-27.5Q635.39-23.9 632.27-21.08 629.14-18.25 623.24-16.45L623.24-16.45Q624.39-13.1 626.37-10.33 628.34-7.55 630.79-5.75L630.79-5.75Q632.99-7.2 634.19-9.13 635.39-11.05 635.39-13.25L635.39-13.25Q635.39-14.55 635.07-15.58 634.74-16.6 634.09-17.65L634.09-17.65 638.29-19.5Q640.19-16.5 640.19-13.25L640.19-13.25Q640.19-10.8 638.87-8.22 637.54-5.65 634.99-3.65L634.99-3.65Q636.34-3.25 637.59-3.25L637.59-3.25Q640.54-3.25 642.94-4.1L642.94-4.1 643.79-0.3ZM627.19-30.85Q625.94-30.85 624.74-30.08 623.54-29.3 622.77-27.73 621.99-26.15 621.99-23.9L621.99-23.9Q621.99-22 622.29-20.25L622.29-20.25Q630.59-22.9 630.59-27.4L630.59-27.4Q630.59-29 629.64-29.93 628.69-30.85 627.19-30.85L627.19-30.85ZM621.54-3.25Q624.14-3.25 626.39-3.85L626.39-3.85Q623.89-5.95 621.92-8.78 619.94-11.6 618.74-14.9L618.74-14.9Q615.59-13.65 614.17-12.28 612.74-10.9 612.74-8.95L612.74-8.95Q612.74-6.4 615.19-4.83 617.64-3.25 621.54-3.25L621.54-3.25ZM658.29-13.9Q662.89-12.65 665.37-10.78 667.84-8.9 667.84-5.75L667.84-5.75Q667.84-2.85 665.39-1.07 662.94 0.7 659.34 0.7L659.34 0.7Q656.84 0.7 654.42-0.18 651.99-1.05 650.09-2.6L650.09-2.6 650.09 0.05 646.29 0.05 646.29-7.6 648.44-7.8Q650.34-5.65 653.22-4.13 656.09-2.6 658.84-2.6L658.84-2.6Q660.69-2.6 661.74-3.3 662.79-4 662.79-5.3L662.79-5.3Q662.79-6.8 661.14-7.78 659.49-8.75 655.74-9.75L655.74-9.75Q651.24-10.95 648.82-12.78 646.39-14.6 646.39-17.55L646.39-17.55Q646.39-19.4 647.42-20.93 648.44-22.45 650.32-23.33 652.19-24.2 654.64-24.2L654.64-24.2Q657.04-24.2 659.22-23.4 661.39-22.6 662.99-21.15L662.99-21.15 662.99-23.55 666.74-23.55 666.74-15.95 664.54-15.7Q663.14-18.05 660.72-19.48 658.29-20.9 655.89-20.9L655.89-20.9Q653.94-20.9 652.69-20.13 651.44-19.35 651.44-18.1L651.44-18.1Q651.44-16.75 653.09-15.83 654.74-14.9 658.29-13.9L658.29-13.9ZM694.44-7L696.64-3.8Q691.99 0.7 685.79 0.7L685.79 0.7Q682.49 0.7 679.59-0.85 676.69-2.4 674.94-5.23 673.19-8.05 673.19-11.7L673.19-11.7Q673.19-15.15 674.79-18.03 676.39-20.9 679.09-22.55 681.79-24.2 684.94-24.2L684.94-24.2Q689.94-24.2 692.74-20.65L692.74-20.65 692.74-23.55 696.29-23.55 696.29-15.3 694.19-15.15Q691.74-20.15 686.39-20.15L686.39-20.15Q684.09-20.15 682.24-19.07 680.39-18 679.34-16.1 678.29-14.2 678.29-11.75L678.29-11.75Q678.29-9.35 679.41-7.45 680.54-5.55 682.36-4.53 684.19-3.5 686.29-3.5L686.29-3.5Q688.74-3.45 690.61-4.35 692.49-5.25 694.44-7L694.44-7ZM726.49-4.15L727.49-0.6Q725.84 0.4 723.64 0.4L723.64 0.4Q721.79 0.4 720.51-0.68 719.24-1.75 718.74-3.75L718.74-3.75Q713.74 0.7 708.84 0.7L708.84 0.7Q705.39 0.7 702.99-1.25 700.59-3.2 700.59-6.7L700.59-6.7Q700.59-9.1 701.94-10.88 703.29-12.65 705.56-13.58 707.84-14.5 710.49-14.5L710.49-14.5Q712.74-14.5 714.64-14.08 716.54-13.65 718.54-12.85L718.54-12.85 718.54-15.05Q718.54-17.6 716.84-18.8 715.14-20 712.39-20L712.39-20Q708.49-20 702.99-17.85L702.99-17.85 701.99-21.65Q707.89-24.15 712.99-24.15L712.99-24.15Q717.84-24.15 720.51-21.78 723.19-19.4 723.19-14.85L723.19-14.85 723.19-6.2Q723.19-3.75 724.94-3.75L724.94-3.75Q725.69-3.75 726.49-4.15L726.49-4.15ZM705.44-6.95Q705.44-5.25 706.79-4.33 708.14-3.4 710.09-3.4L710.09-3.4Q711.79-3.4 713.99-4.3 716.19-5.2 718.54-6.95L718.54-6.95 718.54-9.6Q715.14-10.8 711.34-10.9L711.34-10.9Q708.89-10.9 707.16-9.88 705.44-8.85 705.44-6.95L705.44-6.95ZM739.08-3.95L744.53-3.95 744.53 0 728.93 0 728.93-3.95 734.18-3.95 734.18-30.35 728.93-30.35 728.93-34.3 739.08-34.3 739.08-3.95ZM773.43-4.15L774.43-0.6Q772.78 0.4 770.58 0.4L770.58 0.4Q768.73 0.4 767.46-0.68 766.18-1.75 765.68-3.75L765.68-3.75Q760.68 0.7 755.78 0.7L755.78 0.7Q752.33 0.7 749.93-1.25 747.53-3.2 747.53-6.7L747.53-6.7Q747.53-9.1 748.88-10.88 750.23-12.65 752.51-13.58 754.78-14.5 757.43-14.5L757.43-14.5Q759.68-14.5 761.58-14.08 763.48-13.65 765.48-12.85L765.48-12.85 765.48-15.05Q765.48-17.6 763.78-18.8 762.08-20 759.33-20L759.33-20Q755.43-20 749.93-17.85L749.93-17.85 748.93-21.65Q754.83-24.15 759.93-24.15L759.93-24.15Q764.78-24.15 767.46-21.78 770.13-19.4 770.13-14.85L770.13-14.85 770.13-6.2Q770.13-3.75 771.88-3.75L771.88-3.75Q772.63-3.75 773.43-4.15L773.43-4.15ZM752.38-6.95Q752.38-5.25 753.73-4.33 755.08-3.4 757.03-3.4L757.03-3.4Q758.73-3.4 760.93-4.3 763.13-5.2 765.48-6.95L765.48-6.95 765.48-9.6Q762.08-10.8 758.28-10.9L758.28-10.9Q755.83-10.9 754.11-9.88 752.38-8.85 752.38-6.95L752.38-6.95ZM793.93-24.2Q796.83-24.2 799.35-22.65 801.88-21.1 803.35-18.32 804.83-15.55 804.83-12L804.83-12Q804.83-8.35 803.2-5.45 801.58-2.55 798.78-0.93 795.98 0.7 792.58 0.7L792.58 0.7Q787.88 0.7 783.93-3.15L783.93-3.15 782.53 0 779.63 0 779.63-30.35 774.73-30.35 774.73-34.3 784.43-34.3 784.43-19.05Q786.38-21.45 788.88-22.83 791.38-24.2 793.93-24.2L793.93-24.2ZM791.53-3.5Q793.88-3.5 795.75-4.58 797.63-5.65 798.68-7.6 799.73-9.55 799.73-12.05L799.73-12.05Q799.73-15.6 797.7-17.82 795.68-20.05 792.53-20.05L792.53-20.05Q790.38-20.05 788.3-18.78 786.23-17.5 784.43-15.2L784.43-15.2 784.43-6.4Q788.03-3.5 791.53-3.5L791.53-3.5ZM817.83-3.95L823.28-3.95 823.28 0 807.68 0 807.68-3.95 812.93-3.95 812.93-30.35 807.68-30.35 807.68-34.3 817.83-34.3 817.83-3.95ZM847.77-6.7L849.87-3.5Q845.07 0.7 838.92 0.7L838.92 0.7Q835.57 0.7 832.57-0.7 829.57-2.1 827.72-4.8 825.87-7.5 825.87-11.2L825.87-11.2Q825.87-15.15 827.77-18.1 829.67-21.05 832.72-22.63 835.77-24.2 839.12-24.2L839.12-24.2Q842.07-24.2 844.4-23.25 846.72-22.3 848.05-20.6 849.37-18.9 849.37-16.7L849.37-16.7Q849.37-13.4 846.55-11.58 843.72-9.75 839.77-9.75L839.77-9.75Q837.22-9.75 835.02-10.28 832.82-10.8 830.57-11.8L830.57-11.8 830.57-11.35Q830.57-9 831.7-7.2 832.82-5.4 834.72-4.45 836.62-3.5 838.87-3.5L838.87-3.5Q843.97-3.5 847.77-6.7L847.77-6.7ZM839.47-20.3Q836.77-20.3 834.45-18.75 832.12-17.2 831.12-14.55L831.12-14.55Q834.92-13.2 838.72-13.2L838.72-13.2Q841.22-13.2 842.85-14.13 844.47-15.05 844.47-16.7L844.47-16.7Q844.47-18.3 843.07-19.3 841.67-20.3 839.47-20.3L839.47-20.3Z" opacity="1" transform="matrix(1,0,0,1,0,0)" fill="#1c4b82" class="slogan-text-1" data-fill-palette-color="secondary" id="text-1"></path></svg></g></svg></g></svg></g></svg></g><g><svg viewBox="0 0 228.40785417898906 228.40785417898906" height="228.40785417898906" width="228.40785417898906"><g><svg></svg></g><g id="icon-0"><svg viewBox="0 0 228.40785417898906 228.40785417898906" height="228.40785417898906" width="228.40785417898906"><g><path d="M0 114.204c0-63.073 51.131-114.204 114.204-114.204 63.073 0 114.204 51.131 114.204 114.204 0 63.073-51.131 114.204-114.204 114.204-63.073 0-114.204-51.131-114.204-114.204zM114.204 221.287c59.141 0 107.083-47.943 107.083-107.083 0-59.141-47.943-107.083-107.083-107.083-59.141 0-107.083 47.943-107.083 107.083 0 59.141 47.943 107.083 107.083 107.083z" data-fill-palette-color="tertiary" fill="#1c4b82" stroke="transparent"></path></g><g transform="matrix(1,0,0,1,49.548467257672286,47.12647352909386)"><svg viewBox="0 0 129.31091966364448 134.15490712080134" height="134.15490712080134" width="129.31091966364448"><g><svg xmlns="http://www.w3.org/2000/svg" data-name="Layer 1" viewBox="16.899928772258626 15.68 66.20014245548273 68.68" x="0" y="0" height="134.15490712080134" width="129.31091966364448" class="icon-cg-0" data-fill-palette-color="accent" id="cg-0"><path d="M76.71 46.91H58.09a6.33 6.33 0 0 1-6.32-6.33V22a6.33 6.33 0 0 1 6.32-6.32H76.71A6.34 6.34 0 0 1 83 22V40.58A6.34 6.34 0 0 1 76.71 46.91ZM58.09 17.64A4.33 4.33 0 0 0 53.77 22V40.58a4.33 4.33 0 0 0 4.32 4.33H76.71A4.33 4.33 0 0 0 81 40.58V22a4.33 4.33 0 0 0-4.33-4.32Z" fill="#f012be" data-fill-palette-color="accent"></path><path d="M76.78 84.36H58.15A6.33 6.33 0 0 1 51.83 78V59.42a6.34 6.34 0 0 1 6.32-6.33H76.78a6.34 6.34 0 0 1 6.32 6.33V78A6.33 6.33 0 0 1 76.78 84.36ZM58.15 55.09a4.33 4.33 0 0 0-4.32 4.33V78a4.33 4.33 0 0 0 4.32 4.32H76.78A4.33 4.33 0 0 0 81.1 78V59.42a4.33 4.33 0 0 0-4.32-4.33Z" fill="#f012be" data-fill-palette-color="accent"></path><path d="M41.85 84.36H23.22A6.33 6.33 0 0 1 16.9 78V59.42a6.34 6.34 0 0 1 6.32-6.33H41.85a6.34 6.34 0 0 1 6.32 6.33V78A6.33 6.33 0 0 1 41.85 84.36ZM23.22 55.09a4.33 4.33 0 0 0-4.32 4.33V78a4.33 4.33 0 0 0 4.32 4.32H41.85A4.33 4.33 0 0 0 46.17 78V59.42a4.33 4.33 0 0 0-4.32-4.33Z" fill="#f012be" data-fill-palette-color="accent"></path><path d="M41.85 46.91H23.22a6.34 6.34 0 0 1-6.32-6.33V22a6.33 6.33 0 0 1 6.32-6.32H41.85A6.33 6.33 0 0 1 48.17 22V40.58A6.34 6.34 0 0 1 41.85 46.91ZM23.22 17.64A4.33 4.33 0 0 0 18.9 22V40.58a4.33 4.33 0 0 0 4.32 4.33H41.85a4.33 4.33 0 0 0 4.32-4.33V22a4.33 4.33 0 0 0-4.32-4.32Z" fill="#f012be" data-fill-palette-color="accent"></path></svg></g></svg></g></svg></g></svg></g></svg></g><defs></defs></svg><rect width="395.52" height="136.62851886883797" fill="none" stroke="none" visibility="hidden"></rect></g></svg></g></svg>